<svg xmlns="http://www.w3.org/2000/svg" viewBox="0 0 48 48" fill="#000000" stroke="#000000"><g transform="matrix(2,0,0,2,0,0)"><path fill="none" stroke-linecap="round" stroke-linejoin="round" stroke-width="1.5" d="M21.787 22.5h-21v-21"></path><path d="M16.537 6a1 1 0 0 0-1-1h-2.5V2.5a1 1 0 0 0-1-1h-1.5a1 1 0 0 0-1 1V5h-2.5a1 1 0 0 0-1 1v1.5a1 1 0 0 0 1 1h2.5V11a1 1 0 0 0 1 1h1.5a1 1 0 0 0 1-1V8.5h2.5a1 1 0 0 0 1-1zm4.285 9.234 2.391 2.391-2.391 2.391" fill="none" stroke-linecap="round" stroke-linejoin="round" stroke-width="1.5"></path><path d="M.787 17.625h.5a10.6 10.6 0 0 0 4.737-1.118L8.446 15.3a6.352 6.352 0 0 1 5.683 0l2.422 1.211a10.6 10.6 0 0 0 4.736 1.118h1.926" fill="none" stroke-linecap="round" stroke-linejoin="round" stroke-width="1.5"></path></g></svg>