<svg xmlns="http://www.w3.org/2000/svg" viewBox="0 0 48 48" fill="#000000" stroke="#000000"><g transform="matrix(2,0,0,2,0,0)"><path fill="none" stroke-linecap="round" stroke-linejoin="round" stroke-width="1.5" d="M21.787 22.5h-21v-21"></path><path d="M16.162 6.375a4.875 4.875 0 1 0-7.875 3.816v.309a1.5 1.5 0 0 0 1.5 1.5h3a1.5 1.5 0 0 0 1.5-1.5v-.309a4.845 4.845 0 0 0 1.875-3.816z" fill="none" stroke-linecap="round" stroke-linejoin="round" stroke-width="1.5"></path><path d="M9.412 6.375a.374.374 0 0 1 .375.375m-.75 0a.375.375 0 0 1 .375-.375m0 .75a.375.375 0 0 1-.375-.375m.75 0a.374.374 0 0 1-.375.375m3.75-.75a.374.374 0 0 1 .375.375m-.75 0a.375.375 0 0 1 .375-.375m0 .75a.375.375 0 0 1-.375-.375m.75 0a.374.374 0 0 1-.375.375M11.287 10.5V12m9.535 3.234 2.391 2.391-2.391 2.391" fill="none" stroke-linecap="round" stroke-linejoin="round" stroke-width="1.5"></path><path d="M.787 17.625h.5a10.6 10.6 0 0 0 4.737-1.118L8.446 15.3a6.352 6.352 0 0 1 5.683 0l2.422 1.211a10.6 10.6 0 0 0 4.736 1.118h1.926" fill="none" stroke-linecap="round" stroke-linejoin="round" stroke-width="1.5"></path></g></svg>