<svg xmlns="http://www.w3.org/2000/svg" viewBox="0 0 48 48" fill="#000000" stroke="#000000"><g transform="matrix(2,0,0,2,0,0)"><path fill="none" stroke-linecap="round" stroke-linejoin="round" stroke-width="1.5" d="M21.787 22.5h-21v-21m20.035 13.734 2.391 2.391-2.391 2.391"></path><circle cx="11.287" cy="6.75" r="3" fill="none" stroke-linecap="round" stroke-linejoin="round" stroke-width="1.5"></circle><path fill="none" stroke-linecap="round" stroke-linejoin="round" stroke-width="1.5" d="M10.787 1.5h1m-.5 0v2.25m3.359-1.066.707.707M15 3.038l-1.591 1.591m3.128 1.621v1m0-.5h-2.25m1.066 3.359-.707.707m.354-.354-1.591-1.591M11.787 12h-1m.5 0V9.75m-3.358 1.066-.707-.707m.353.353 1.591-1.591M6.037 7.25v-1m0 .5h2.25M7.222 3.391l.707-.707m-.354.354 1.591 1.591M.787 17.625h.5a10.6 10.6 0 0 0 4.737-1.118L8.446 15.3a6.352 6.352 0 0 1 5.683 0l2.422 1.211a10.6 10.6 0 0 0 4.736 1.118h1.926"></path></g></svg>