<svg xmlns="http://www.w3.org/2000/svg" viewBox="0 0 48 48" fill="#000000" stroke="#000000"><g transform="matrix(2,0,0,2,0,0)"><circle cx="12" cy="12" r="8.25" fill="none" stroke-linecap="round" stroke-linejoin="round" stroke-width="1.5"></circle><path fill="none" stroke-linecap="round" stroke-linejoin="round" stroke-width="1.5" d="M13.75.75h-3.5m1.75 0v3m-6.718-.942L4.045 4.045 2.808 5.282m1.237-1.237 2.121 2.121M.75 10.25v3.5m0-1.75h3m-.942 6.718 1.237 1.237 1.237 1.237m-1.237-1.237 2.121-2.121m4.084 5.416h3.5m-1.75 0v-3m6.718.942 1.237-1.237 1.237-1.237m-1.237 1.237-2.121-2.121m5.416-4.084v-3.5m0 1.75h-3m.942-6.718-1.237-1.237-1.237-1.237m1.237 1.237-2.121 2.121"></path><circle cx="16.75" cy="12.25" r=".5" fill="none" stroke-linecap="round" stroke-linejoin="round" stroke-width="1.5"></circle><circle cx="12.75" cy="16.75" r=".5" fill="none" stroke-linecap="round" stroke-linejoin="round" stroke-width="1.5"></circle><circle cx="9.5" cy="9.5" r="1.75" fill="none" stroke-linecap="round" stroke-linejoin="round" stroke-width="1.5"></circle></g></svg>